<svg xmlns="http://www.w3.org/2000/svg" viewBox="0 0 800 600">
  <!-- Background -->
  <rect width="800" height="600" fill="#E0F2FE"/>
  
  <!-- Floor -->
  <rect x="0" y="500" width="800" height="100" fill="#3B82F6"/>
  
  <!-- Reception Desk -->
  <rect x="50" y="300" width="250" height="120" fill="#B2DFDB"/>
  <rect x="50" y="280" width="250" height="30" fill="#F9FAFB"/>
  
  <!-- Receptionist -->
  <rect x="100" y="200" width="80" height="120" fill="#F3E8FF"/> <!-- Lab coat -->
  <rect x="110" y="190" width="60" height="40" fill="#F3E8FF"/> <!-- Lab coat top -->
  <rect x="115" y="210" width="50" height="60" fill="#DDD6FE"/> <!-- Shirt -->
  <circle cx="140" cy="180" r="25" fill="#FDE68A"/> <!-- Head -->
  <rect x="135" y="175" width="10" height="8" fill="#374151"/> <!-- Glasses -->
  <rect x="120" y="320" width="20" height="30" fill="#374151"/> <!-- Arms -->
  <rect x="160" y="320" width="20" height="30" fill="#374151"/> <!-- Arms -->
  
  <!-- Document on desk -->
  <rect x="200" y="290" width="60" height="80" fill="#FFFFFF"/>
  <rect x="205" y="295" width="50" height="3" fill="#374151"/>
  <rect x="205" y="305" width="50" height="3" fill="#374151"/>
  <rect x="205" y="315" width="50" height="3" fill="#374151"/>
  <rect x="205" y="325" width="50" height="3" fill="#374151"/>
  
  <!-- Stapler -->
  <circle cx="280" cy="310" r="8" fill="#D1D5DB"/>
  
  <!-- Waiting Chair -->
  <rect x="450" y="350" width="80" height="100" fill="#FFFFFF"/>
  <rect x="460" y="340" width="60" height="20" fill="#FFFFFF"/> <!-- Chair back -->
  
  <!-- Patient in waiting chair -->
  <rect x="470" y="200" width="80" height="120" fill="#F3E8FF"/> <!-- Lab coat -->
  <rect x="480" y="190" width="60" height="40" fill="#F3E8FF"/> <!-- Lab coat top -->
  <rect x="485" y="210" width="50" height="60" fill="#DDD6FE"/> <!-- Shirt -->
  <rect x="480" y="270" width="50" height="80" fill="#DDD6FE"/> <!-- Pants -->
  <circle cx="510" cy="180" r="25" fill="#FDE68A"/> <!-- Head -->
  <rect x="505" y="175" width="10" height="8" fill="#374151"/> <!-- Glasses -->
  <rect x="470" y="320" width="20" height="30" fill="#374151"/> <!-- Arms -->
  <rect x="530" y="320" width="20" height="30" fill="#374151"/> <!-- Arms -->
  
  <!-- Wall elements -->
  <rect x="400" y="150" width="200" height="15" fill="#B2DFDB"/> <!-- Shelf -->
  <rect x="600" y="120" width="25" height="35" fill="#F9FAFB"/> <!-- Sanitizer -->
  <rect x="605" y="125" width="15" height="25" fill="#374151"/> <!-- Sanitizer body -->
  <circle cx="612" cy="130" r="3" fill="#F9FAFB"/> <!-- Sanitizer top -->
  
  <!-- Outlines for flat design effect -->
  <rect x="50" y="300" width="250" height="120" fill="none" stroke="#374151" stroke-width="3"/>
  <rect x="50" y="280" width="250" height="30" fill="none" stroke="#374151" stroke-width="3"/>
  <rect x="450" y="350" width="80" height="100" fill="none" stroke="#374151" stroke-width="3"/>
  <rect x="460" y="340" width="60" height="20" fill="none" stroke="#374151" stroke-width="3"/>
</svg>
